<?xml version="1.0" encoding="UTF-8"?>
<svg
	version="1.1"
	xmlns="http://www.w3.org/2000/svg"
	xmlns:xlink="http://www.w3.org/1999/xlink"
	width="500px"
	height="500px" viewBox="0 0 100 100"
	>
	<g id="mug">
		<circle fill="#00539F" cx="49.779" cy="49.779" r="49.779"/>
		<path fill="#E6E7E8" d="M92.325,54H82.137h-1.676c-2.154,15-15.066,26.65-30.682,26.65c-17.123,0-31.003-13.791-31.003-30.915
			c0-17.123,13.88-31.045,31.003-31.045c15.825,0,28.872,11.774,30.759,27.088L80.546,45h1.59h10.189C94.255,45,96,46.904,96,48.834
			v1.891C96,52.654,94.255,54,92.325,54z"/>
		<circle fill="#00539F" cx="49.779" cy="49.78" r="26.054"/>
		<path fill="#EF3E33" d="M56.371,58.5c-3.09,1.498-15.29,5.303-15.29,5.303s-3.771-12.211-4.289-15.607
			c-0.514-3.396,0.317-12.413,7.473-11.695c7.34,0.74,7.062,7.831,7.062,7.831s5.688-4.244,10.452,1.389
			C66.424,51.209,59.463,57,56.371,58.5z"/>
	</g>
</svg>